<svg xmlns="http://www.w3.org/2000/svg" viewBox="0 0 900 600">
  <defs>
    <linearGradient id="bg" x1="0" y1="0" x2="1" y2="1">
      <stop offset="0" stop-color="#1d3e35"/>
      <stop offset="1" stop-color="#2b5845"/>
    </linearGradient>
  </defs>
  <rect width="900" height="600" rx="36" fill="url(#bg)"/>
  <g fill="none" stroke="#f9f4ea" stroke-opacity="0.25" stroke-width="2">
    <path d="M120 430 L780 430"/>
    <path d="M120 350 L780 350"/>
    <path d="M120 270 L780 270"/>
  </g>
  <g fill="#f9f4ea" opacity="0.9">
    <rect x="170" y="300" width="60" height="130" rx="12"/>
    <rect x="270" y="260" width="60" height="170" rx="12"/>
    <rect x="370" y="230" width="60" height="200" rx="12"/>
    <rect x="470" y="270" width="60" height="160" rx="12"/>
    <rect x="570" y="310" width="60" height="120" rx="12"/>
  </g>
  <g fill="#f9f4ea" opacity="0.75">
    <circle cx="690" cy="210" r="24"/>
    <rect x="660" y="240" width="60" height="80" rx="20"/>
    <circle cx="750" cy="235" r="18"/>
    <rect x="732" y="258" width="40" height="60" rx="18"/>
  </g>
  <path d="M170 210 C250 170 330 180 410 160 C490 140 580 160 650 130" fill="none" stroke="#f9f4ea" stroke-opacity="0.5" stroke-width="3"/>
</svg>
