<svg xmlns="http://www.w3.org/2000/svg" viewBox="0 0 900 600">
  <defs>
    <linearGradient id="bg" x1="0" y1="0" x2="1" y2="1">
      <stop offset="0" stop-color="#163a33"/>
      <stop offset="1" stop-color="#2b5a46"/>
    </linearGradient>
    <radialGradient id="glow" cx="35%" cy="25%" r="40%">
      <stop offset="0" stop-color="#7be0cf" stop-opacity="0.8"/>
      <stop offset="1" stop-color="#7be0cf" stop-opacity="0"/>
    </radialGradient>
  </defs>
  <rect width="900" height="600" rx="36" fill="url(#bg)"/>
  <rect width="900" height="600" rx="36" fill="url(#glow)"/>
  <g fill="none" stroke="#f9f4ea" stroke-opacity="0.35" stroke-width="2">
    <circle cx="220" cy="200" r="38"/>
    <circle cx="420" cy="160" r="30"/>
    <circle cx="360" cy="340" r="28"/>
    <circle cx="560" cy="290" r="44"/>
    <path d="M258 200 L392 170"/>
    <path d="M238 232 L338 318"/>
    <path d="M388 182 L516 270"/>
    <path d="M380 340 L520 300"/>
  </g>
  <g>
    <rect x="610" y="120" width="200" height="260" rx="26" fill="#f9f4ea" opacity="0.12"/>
    <path d="M640 150 L740 150 L780 210 L780 330 L640 330 L600 260 L600 180 Z" fill="#f9f4ea" opacity="0.18"/>
    <path d="M685 200 L725 200 L750 230 L750 290 L685 290 L660 260 L660 220 Z" fill="#f9f4ea" opacity="0.8"/>
    <circle cx="705" cy="185" r="14" fill="#f9f4ea"/>
  </g>
  <rect x="110" y="420" width="320" height="120" rx="18" fill="#f9f4ea" opacity="0.12"/>
  <rect x="140" y="448" width="180" height="10" rx="5" fill="#f9f4ea"/>
  <rect x="140" y="472" width="130" height="10" rx="5" fill="#f9f4ea" opacity="0.8"/>
  <rect x="140" y="496" width="150" height="10" rx="5" fill="#f9f4ea" opacity="0.6"/>
</svg>
