<svg xmlns="http://www.w3.org/2000/svg" viewBox="0 0 900 600">
  <defs>
    <linearGradient id="bg" x1="0" y1="0" x2="1" y2="1">
      <stop offset="0" stop-color="#1e4336"/>
      <stop offset="1" stop-color="#2f5e48"/>
    </linearGradient>
  </defs>
  <rect width="900" height="600" rx="36" fill="url(#bg)"/>
  <g fill="#f9f4ea" opacity="0.12">
    <rect x="110" y="150" width="300" height="320" rx="24"/>
    <rect x="450" y="170" width="330" height="280" rx="24"/>
  </g>
  <g fill="none" stroke="#f9f4ea" stroke-opacity="0.75" stroke-width="6" stroke-linecap="round" stroke-linejoin="round">
    <path d="M470 220 L540 180 L610 220"/>
    <path d="M610 220 L595 300 L540 330"/>
    <path d="M540 330 L480 300 L470 220"/>
  </g>
  <g fill="#f9f4ea" opacity="0.75">
    <circle cx="260" cy="240" r="28"/>
    <rect x="230" y="270" width="60" height="90" rx="20"/>
    <circle cx="330" cy="225" r="18"/>
    <rect x="312" y="246" width="36" height="60" rx="16"/>
  </g>
  <rect x="160" y="390" width="160" height="12" rx="6" fill="#f9f4ea" opacity="0.6"/>
  <rect x="160" y="414" width="120" height="12" rx="6" fill="#f9f4ea" opacity="0.5"/>
</svg>
