<svg xmlns="http://www.w3.org/2000/svg" viewBox="0 0 900 600">
  <defs>
    <linearGradient id="bg" x1="0" y1="0" x2="1" y2="1">
      <stop offset="0" stop-color="#1f4538"/>
      <stop offset="1" stop-color="#2f5f49"/>
    </linearGradient>
  </defs>
  <rect width="900" height="600" rx="36" fill="url(#bg)"/>
  <g fill="#f9f4ea" opacity="0.14">
    <rect x="80" y="120" width="230" height="180" rx="18"/>
    <rect x="340" y="90" width="210" height="210" rx="18"/>
    <rect x="585" y="140" width="240" height="160" rx="18"/>
    <rect x="130" y="340" width="170" height="170" rx="18"/>
    <rect x="360" y="330" width="220" height="190" rx="18"/>
    <rect x="620" y="340" width="180" height="140" rx="18"/>
  </g>
  <g fill="none" stroke="#f9f4ea" stroke-opacity="0.45" stroke-width="2">
    <path d="M90 230 L820 230"/>
    <path d="M90 420 L820 420"/>
    <path d="M260 90 L260 520"/>
    <path d="M480 90 L480 520"/>
    <path d="M680 90 L680 520"/>
  </g>
  <g fill="#f9f4ea" opacity="0.8">
    <circle cx="260" cy="230" r="6"/>
    <circle cx="480" cy="420" r="6"/>
    <circle cx="680" cy="230" r="6"/>
    <circle cx="260" cy="420" r="6"/>
  </g>
  <path d="M140 150 C240 110 330 120 420 110 C520 98 620 110 720 80" fill="none" stroke="#f9f4ea" stroke-opacity="0.4" stroke-width="3"/>
</svg>
